PathFileType	4	(X/Y/Z)	E:/New_biomech_experiments/27_06_2024_Shreyas_Arm26_updated ground/Afternoon session/Neeraj_PP_27_6_24_elbow_flexion_t01.trc										
DataRate	CameraRate	NumFrames	NumMarkers	Units	OrigDataRate	OrigDataStartFrame	OrigNumFrames						
120	120	36	4	m	120	2447	6524						
Frame#	Time	r_acromion			r_humerus_epicondyle			r_radius_styloid			RHAND		
		X1	Y1	Z1	X2	Y2	Z2	X3	Y3	Z3	X4	Y4	Z4
													
2447	20.383	-0.00085	0.88128	0.22406	-0.02699	0.54108	0.25368	0.2236	0.62764	0.23595	0.29847	0.67251	0.18541
2448	20.392	-0.00086	0.88126	0.22407	-0.027	0.54108	0.25368	0.2234	0.62806	0.23597	0.29822	0.67299	0.18532
2449	20.4	-0.00086	0.88124	0.22407	-0.027	0.54107	0.25369	0.22321	0.62848	0.23598	0.29796	0.67348	0.18523
2450	20.408	-0.00087	0.88121	0.22407	-0.02701	0.54107	0.25369	0.22302	0.62889	0.23599	0.29771	0.67397	0.18516
2451	20.417	-0.00087	0.88119	0.22408	-0.02702	0.54106	0.2537	0.22283	0.62931	0.23599	0.29745	0.67447	0.1851
2452	20.425	-0.00088	0.88117	0.22409	-0.02702	0.54106	0.25371	0.22265	0.62972	0.236	0.29719	0.67499	0.18504
2453	20.433	-0.00089	0.88115	0.22411	-0.02703	0.54106	0.25372	0.22246	0.63013	0.23601	0.29693	0.6755	0.185
2454	20.442	-0.00091	0.88114	0.22412	-0.02704	0.54106	0.25373	0.22228	0.63053	0.236	0.29667	0.67602	0.18496
2455	20.45	-0.00092	0.88113	0.22413	-0.02704	0.54106	0.25375	0.22209	0.63092	0.23599	0.2964	0.67655	0.18492
2456	20.458	-0.00094	0.88111	0.22415	-0.02705	0.54106	0.25376	0.22191	0.63132	0.23597	0.29613	0.67707	0.18488
2457	20.467	-0.00096	0.88109	0.22416	-0.02705	0.54106	0.25378	0.22172	0.63171	0.23594	0.29586	0.67758	0.18484
2458	20.475	-0.00098	0.88108	0.22417	-0.02706	0.54106	0.25379	0.22153	0.6321	0.23592	0.29559	0.67809	0.18482
2459	20.483	-0.00101	0.88106	0.22418	-0.02707	0.54106	0.25381	0.22135	0.6325	0.23591	0.29532	0.67861	0.18479
2460	20.492	-0.00104	0.88105	0.22419	-0.02708	0.54107	0.25383	0.22116	0.6329	0.2359	0.29505	0.67912	0.18478
2461	20.5	-0.00107	0.88104	0.2242	-0.0271	0.54107	0.25386	0.22098	0.63329	0.23591	0.29478	0.67963	0.18478
2462	20.508	-0.0011	0.88103	0.22422	-0.02711	0.54108	0.25388	0.22079	0.63369	0.23593	0.29452	0.68014	0.18479
2463	20.517	-0.00113	0.88102	0.22423	-0.02713	0.54108	0.25391	0.2206	0.63408	0.23596	0.29427	0.68065	0.18481
2464	20.525	-0.00116	0.88102	0.22424	-0.02715	0.54109	0.25394	0.22042	0.63447	0.236	0.29401	0.68115	0.18483
2465	20.533	-0.00119	0.88101	0.22425	-0.02717	0.54109	0.25397	0.22023	0.63485	0.23605	0.29375	0.68164	0.18486
2466	20.542	-0.00122	0.881	0.22426	-0.02719	0.54109	0.25401	0.22003	0.63524	0.2361	0.29348	0.68213	0.18487
2467	20.55	-0.00126	0.88099	0.22427	-0.02722	0.54109	0.25404	0.21984	0.63561	0.23615	0.29321	0.68261	0.18488
2468	20.558	-0.00129	0.88098	0.22428	-0.02725	0.5411	0.25408	0.21964	0.63598	0.23618	0.29294	0.68308	0.18488
2469	20.567	-0.00132	0.88098	0.22429	-0.02728	0.5411	0.25411	0.21944	0.63634	0.23619	0.29266	0.68355	0.18488
2470	20.575	-0.00136	0.88097	0.2243	-0.02732	0.5411	0.25415	0.21923	0.6367	0.23619	0.29237	0.68402	0.18487
2471	20.583	-0.00139	0.88097	0.22431	-0.02736	0.54111	0.25419	0.21903	0.63706	0.23618	0.29208	0.68448	0.18486
2472	20.592	-0.00142	0.88096	0.22432	-0.0274	0.54111	0.25422	0.21882	0.63741	0.23619	0.29179	0.68494	0.18485
2473	20.6	-0.00145	0.88096	0.22432	-0.02744	0.54112	0.25426	0.21862	0.63777	0.2362	0.2915	0.68539	0.18484
2474	20.608	-0.00148	0.88096	0.22433	-0.02748	0.54113	0.2543	0.21841	0.63812	0.23622	0.29121	0.68584	0.18483
2475	20.617	-0.00151	0.88097	0.22434	-0.02752	0.54113	0.25433	0.2182	0.63847	0.23623	0.29092	0.68628	0.18482
2476	20.625	-0.00155	0.88097	0.22435	-0.02756	0.54114	0.25437	0.21799	0.63881	0.23624	0.29064	0.68672	0.1848
2477	20.633	-0.00158	0.88098	0.22435	-0.02761	0.54114	0.2544	0.21779	0.63915	0.23624	0.29037	0.68716	0.18479
2478	20.642	-0.00161	0.88099	0.22435	-0.02765	0.54115	0.25444	0.21759	0.63949	0.23623	0.29011	0.6876	0.18477
2479	20.65	-0.00165	0.88102	0.22435	-0.02769	0.54116	0.25448	0.2174	0.63983	0.23621	0.28985	0.68803	0.18474
2480	20.658	-0.00168	0.88104	0.22434	-0.02773	0.54117	0.25451	0.21721	0.64017	0.23618	0.28959	0.68845	0.18472
2481	20.667	-0.00171	0.88106	0.22435	-0.02777	0.54118	0.25455	0.21702	0.6405	0.23616	0.28933	0.68888	0.18468
2482	20.675	-0.00174	0.88107	0.22436	-0.02781	0.54119	0.2546	0.21683	0.64083	0.23613	0.28907	0.68929	0.18465
